<?xml version="1.0" encoding="utf-8"?>
<svg viewBox="583.933 -581.191 277.617 1438.519" xmlns="http://www.w3.org/2000/svg">
  <path fill="#9BD2DE" fill-opacity="1" d="M 0 192 L 26.7 165.3 C 53.3 139 107 85 160 101.3 C 213.3 117 267 203 320 240 C 373.3 277 427 267 480 256 C 533.3 245 587 235 640 245.3 C 693.3 256 747 288 800 266.7 C 853.3 245 907 171 960 160 C 1013.3 149 1067 203 1120 202.7 C 1173.3 203 1227 149 1280 138.7 C 1333.3 128 1387 160 1413 176 L 1440 192 L 1440 0 L 1413.3 0 C 1386.7 0 1333 0 1280 0 C 1226.7 0 1173 0 1120 0 C 1066.7 0 1013 0 960 0 C 906.7 0 853 0 800 0 C 746.7 0 693 0 640 0 C 586.7 0 533 0 480 0 C 426.7 0 373 0 320 0 C 266.7 0 213 0 160 0 C 106.7 0 53 0 27 0 L 0 0 L 0 192 Z" transform="matrix(0, -1, 1, 0, 583.071533, 856.928528)"/>
  <circle style="stroke: rgba(0, 0, 0, 0); paint-order: stroke; fill: rgb(155, 210, 222);" cx="922.906" cy="212.524" r="23.404" transform="matrix(0, -1, 1, 0, 583.071533, 856.928528)"/>
  <circle style="stroke: rgba(0, 0, 0, 0); paint-order: stroke; fill: rgb(155, 210, 222);" cx="955.912" cy="239.929" r="11.202" transform="matrix(0, -1, 1, 0, 583.071533, 856.928528)"/>
  <circle style="stroke: rgba(0, 0, 0, 0); paint-order: stroke; fill: rgb(155, 210, 222);" cx="1306.62" cy="175.097" r="23.404" transform="matrix(0, -1, 1, 0, 583.071533, 856.928528)"/>
  <circle style="stroke: rgba(0, 0, 0, 0); paint-order: stroke; fill: rgb(155, 210, 222);" cx="1270.644" cy="208.822" r="11.202" transform="matrix(0, -1, 1, 0, 583.071533, 856.928528)"/>
  <circle style="stroke: rgba(0, 0, 0, 0); paint-order: stroke; fill: rgb(155, 210, 222);" cx="1297.5" cy="210.929" r="6.463" transform="matrix(0, -1, 1, 0, 583.071533, 856.928528)"/>
  <circle style="stroke: rgba(0, 0, 0, 0); paint-order: stroke; fill: rgb(155, 210, 222);" cx="150.241" cy="122.501" r="11.202" transform="matrix(0, -1, 1, 0, 583.071533, 856.928528)"/>
  <circle style="stroke: rgba(0, 0, 0, 0); paint-order: stroke; fill: rgb(155, 210, 222);" cx="135.497" cy="144.617" r="11.202" transform="matrix(0, -0.506417, 0.529921, 0, 642.101074, 796.631775)"/>
</svg>