<?xml version="1.0" encoding="utf-8"?>
<svg viewBox="0 0 1440 320" xmlns="http://www.w3.org/2000/svg">
  <path fill="#9BD2DE" fill-opacity="1" d="M0,192L26.7,165.3C53.3,139,107,85,160,101.3C213.3,117,267,203,320,240C373.3,277,427,267,480,256C533.3,245,587,235,640,245.3C693.3,256,747,288,800,266.7C853.3,245,907,171,960,160C1013.3,149,1067,203,1120,202.7C1173.3,203,1227,149,1280,138.7C1333.3,128,1387,160,1413,176L1440,192L1440,0L1413.3,0C1386.7,0,1333,0,1280,0C1226.7,0,1173,0,1120,0C1066.7,0,1013,0,960,0C906.7,0,853,0,800,0C746.7,0,693,0,640,0C586.7,0,533,0,480,0C426.7,0,373,0,320,0C266.7,0,213,0,160,0C106.7,0,53,0,27,0L0,0Z"/>
  <circle style="stroke: rgba(0, 0, 0, 0); paint-order: stroke; fill: rgb(155, 210, 222);" cx="922.906" cy="212.524" r="23.404"/>
  <circle style="stroke: rgba(0, 0, 0, 0); paint-order: stroke; fill: rgb(155, 210, 222);" cx="955.912" cy="239.929" r="11.202"/>
  <circle style="stroke: rgba(0, 0, 0, 0); paint-order: stroke; fill: rgb(155, 210, 222);" cx="1306.62" cy="175.097" r="23.404"/>
  <circle style="stroke: rgba(0, 0, 0, 0); paint-order: stroke; fill: rgb(155, 210, 222);" cx="1270.644" cy="208.822" r="11.202"/>
  <circle style="stroke: rgba(0, 0, 0, 0); paint-order: stroke; fill: rgb(155, 210, 222);" cx="1297.5" cy="210.929" r="6.463"/>
  <circle style="stroke: rgba(0, 0, 0, 0); paint-order: stroke; fill: rgb(155, 210, 222);" cx="150.241" cy="122.501" r="11.202"/>
  <circle style="stroke: rgba(0, 0, 0, 0); paint-order: stroke; fill: rgb(155, 210, 222);" cx="135.497" cy="144.617" r="11.202" transform="matrix(0.506417, 0, 0, 0.529921, 60.296757, 59.029552)"/>
</svg>